<svg width="38" height="36" viewBox="0 0 38 36" fill="none" xmlns="http://www.w3.org/2000/svg">
<circle cx="25.4004" cy="2" r="2" fill="#0F193D"/>
<path d="M27.35 3.0062C27.0071 3.76627 26.2467 4.29482 25.3637 4.29482C24.4783 4.29482 23.7162 3.7634 23.3747 3V12.9233C24.0698 13.9033 25.0546 15.4173 25.5743 16.6498C25.7884 17.1576 26.0385 17.8683 26.3162 18.6574L26.3171 18.6601L26.3215 18.6725C26.5297 19.264 26.7531 19.8988 26.9885 20.5248C27.1225 19.0395 27.2185 17.3886 27.328 15.5058L27.35 15.1285V3.0062Z" fill="url(#paint0_linear_4679_33551)"/>
<path d="M22.9179 31.7824L22.2344 31.4858L22.9179 31.7824C23.7806 30.7191 24.4566 29.6958 24.9904 28.6562C24.5074 27.7883 23.9466 26.6356 23.4807 25.324C23.2273 24.6108 22.9835 23.9506 22.7465 23.3393C22.1542 26.3304 21.0269 28.4968 18.9215 30.0482C17.3537 31.2696 15.3866 31.9965 13.251 31.9965C8.12816 31.9965 3.97529 27.8142 3.97529 22.6551C3.97529 17.4959 8.12816 13.3136 13.251 13.3136C16.369 13.3136 19.1277 14.863 20.8093 17.239L20.8013 17.2549L20.8312 17.2703C21.644 18.4761 22.8742 21.6047 23.6625 23.6426C25.4085 28.1567 27.2568 30.9674 29.0063 32.4556C31.3688 34.6556 34.5285 36 38 36V31.9965C35.1488 31.9965 32.598 30.7009 30.8965 28.6624L30.8975 28.6603C29.1219 27.1923 27.0282 23.1088 25.9151 19.6658C25.2463 17.597 23.6246 14.6337 22.8062 13.4163L22.8128 13.4033L22.7893 13.3912L22.7889 13.3907L22.7888 13.391L22.7886 13.3909L22.7887 13.3905C20.3787 10.8747 16.9963 9.3101 13.251 9.3101C5.93265 9.3101 0 15.2848 0 22.6551C0 30.0253 5.93265 36 13.251 36C17.0637 36 20.5004 34.3783 22.9179 31.7824Z" fill="url(#paint1_linear_4679_33551)"/>
<defs>
<linearGradient id="paint0_linear_4679_33551" x1="1.47752e-07" y1="21.4722" x2="38.0001" y2="21.965" gradientUnits="userSpaceOnUse">
<stop stop-color="#C8700B"/>
<stop offset="1" stop-color="#0F193D"/>
</linearGradient>
<linearGradient id="paint1_linear_4679_33551" x1="1.47752e-07" y1="21.4722" x2="38.0001" y2="21.965" gradientUnits="userSpaceOnUse">
<stop stop-color="#C8700B"/>
<stop offset="1" stop-color="#0F193D"/>
</linearGradient>
</defs>
</svg>
