<svg width="168" height="40" viewBox="0 0 168 40" fill="none" xmlns="http://www.w3.org/2000/svg">
<circle cx="29.4004" cy="4" r="2" fill="#E2C8AA"/>
<path d="M31.35 5.0062C31.0071 5.76627 30.2467 6.29482 29.3637 6.29482C28.4783 6.29482 27.7162 5.7634 27.3747 5V14.9233C28.0698 15.9033 29.0546 17.4173 29.5743 18.6498C29.7884 19.1576 30.0385 19.8683 30.3162 20.6574L30.3171 20.6601L30.3215 20.6725C30.5297 21.264 30.7531 21.8988 30.9885 22.5248C31.1225 21.0395 31.2185 19.3886 31.328 17.5058L31.35 17.1285V5.0062Z" fill="#E2C8AA"/>
<path d="M26.9179 33.7824L26.2344 33.4858L26.9179 33.7824C27.7806 32.7191 28.4566 31.6958 28.9904 30.6562C28.5074 29.7883 27.9466 28.6356 27.4807 27.324C27.2273 26.6108 26.9835 25.9506 26.7465 25.3393C26.1542 28.3304 25.0269 30.4968 22.9215 32.0482C21.3537 33.2696 19.3866 33.9965 17.251 33.9965C12.1282 33.9965 7.97529 29.8142 7.97529 24.6551C7.97529 19.4959 12.1282 15.3136 17.251 15.3136C20.369 15.3136 23.1277 16.863 24.8093 19.239L24.8013 19.2549L24.8312 19.2703C25.644 20.4761 26.8742 23.6047 27.6625 25.6426C29.4085 30.1567 31.2568 32.9674 33.0063 34.4556C35.3688 36.6556 38.5285 38 42 38V33.9965C39.1488 33.9965 36.598 32.7009 34.8965 30.6624L34.8975 30.6603C33.1219 29.1923 31.0282 25.1088 29.9151 21.6658C29.2463 19.597 27.6246 16.6337 26.8062 15.4163L26.8128 15.4033L26.7893 15.3912L26.7889 15.3907L26.7888 15.391L26.7886 15.3909L26.7887 15.3905C24.3787 12.8747 20.9963 11.3101 17.251 11.3101C9.93265 11.3101 4 17.2848 4 24.6551C4 32.0253 9.93265 38 17.251 38C21.0637 38 24.5004 36.3783 26.9179 33.7824Z" fill="#E2C8AA"/>
<path d="M42 23.2468C42 21.4286 42.3765 19.8377 43.1296 18.474C43.8826 17.0887 44.9125 16.0173 46.2192 15.2597C47.5481 14.5022 49.0209 14.1234 50.6378 14.1234C52.2324 14.1234 53.6167 14.4589 54.7905 15.1299C55.9644 15.8009 56.8392 16.645 57.4151 17.6623V14.4156H60.4715V32.2078H57.4151V28.8961C56.8171 29.9351 55.9201 30.8009 54.7241 31.4935C53.5502 32.1645 52.1771 32.5 50.6045 32.5C48.9877 32.5 47.526 32.1104 46.2192 31.3312C44.9125 30.552 43.8826 29.4589 43.1296 28.052C42.3765 26.645 42 25.0433 42 23.2468ZM57.4151 23.2792C57.4151 21.9372 57.1382 20.7684 56.5845 19.7727C56.0308 18.7771 55.2778 18.0195 54.3254 17.5C53.3952 16.9589 52.3653 16.6883 51.2358 16.6883C50.1062 16.6883 49.0763 16.9481 48.1461 17.4675C47.2159 17.987 46.4739 18.7446 45.9202 19.7403C45.3665 20.7359 45.0897 21.9048 45.0897 23.2468C45.0897 24.6104 45.3665 25.8009 45.9202 26.8182C46.4739 27.8139 47.2159 28.5823 48.1461 29.1234C49.0763 29.6429 50.1062 29.9026 51.2358 29.9026C52.3653 29.9026 53.3952 29.6429 54.3254 29.1234C55.2778 28.5823 56.0308 27.8139 56.5845 26.8182C57.1382 25.8009 57.4151 24.6212 57.4151 23.2792Z" fill="#E2C8AA"/>
<path d="M64.4509 23.2468C64.4509 21.4286 64.8274 19.8377 65.5805 18.474C66.3335 17.0887 67.3634 16.0173 68.6701 15.2597C69.999 14.5022 71.4829 14.1234 73.1219 14.1234C74.5394 14.1234 75.8572 14.4481 77.0753 15.0974C78.2935 15.7251 79.2237 16.5584 79.866 17.5974V8.18182H82.9224V32.2078H79.866V28.8636C79.268 29.9242 78.3821 30.8009 77.2082 31.4935C76.0344 32.1645 74.6612 32.5 73.0887 32.5C71.4719 32.5 69.999 32.1104 68.6701 31.3312C67.3634 30.552 66.3335 29.4589 65.5805 28.052C64.8274 26.645 64.4509 25.0433 64.4509 23.2468ZM79.866 23.2792C79.866 21.9372 79.5891 20.7684 79.0354 19.7727C78.4817 18.7771 77.7287 18.0195 76.7763 17.5C75.8461 16.9589 74.8162 16.6883 73.6867 16.6883C72.5571 16.6883 71.5272 16.9481 70.597 17.4675C69.6668 17.987 68.9248 18.7446 68.3711 19.7403C67.8174 20.7359 67.5406 21.9048 67.5406 23.2468C67.5406 24.6104 67.8174 25.8009 68.3711 26.8182C68.9248 27.8139 69.6668 28.5823 70.597 29.1234C71.5272 29.6429 72.5571 29.9026 73.6867 29.9026C74.8162 29.9026 75.8461 29.6429 76.7763 29.1234C77.7287 28.5823 78.4817 27.8139 79.0354 26.8182C79.5891 25.8009 79.866 24.6212 79.866 23.2792Z" fill="#E2C8AA"/>
<path d="M89.5928 11.526C89.017 11.526 88.5297 11.3312 88.131 10.9416C87.7324 10.5519 87.533 10.0758 87.533 9.51299C87.533 8.95022 87.7324 8.47403 88.131 8.08442C88.5297 7.69481 89.017 7.5 89.5928 7.5C90.1465 7.5 90.6116 7.69481 90.9881 8.08442C91.3868 8.47403 91.5861 8.95022 91.5861 9.51299C91.5861 10.0758 91.3868 10.5519 90.9881 10.9416C90.6116 11.3312 90.1465 11.526 89.5928 11.526ZM91.0546 14.4156V32.2078H88.0314V14.4156H91.0546Z" fill="#E2C8AA"/>
<path d="M99.2303 17.7273C99.8505 16.6667 100.759 15.8009 101.955 15.1299C103.151 14.4589 104.513 14.1234 106.041 14.1234C107.68 14.1234 109.153 14.5022 110.459 15.2597C111.766 16.0173 112.796 17.0887 113.549 18.474C114.302 19.8377 114.679 21.4286 114.679 23.2468C114.679 25.0433 114.302 26.645 113.549 28.052C112.796 29.4589 111.755 30.552 110.426 31.3312C109.119 32.1104 107.658 32.5 106.041 32.5C104.468 32.5 103.084 32.1645 101.888 31.4935C100.714 30.8225 99.8283 29.9675 99.2303 28.9286V32.2078H96.2071V8.18182H99.2303V17.7273ZM111.589 23.2468C111.589 21.9048 111.312 20.7359 110.758 19.7403C110.205 18.7446 109.452 17.987 108.499 17.4675C107.569 16.9481 106.539 16.6883 105.41 16.6883C104.302 16.6883 103.272 16.9589 102.32 17.5C101.39 18.0195 100.637 18.7879 100.061 19.8052C99.5072 20.8009 99.2303 21.9589 99.2303 23.2792C99.2303 24.6212 99.5072 25.8009 100.061 26.8182C100.637 27.8139 101.39 28.5823 102.32 29.1234C103.272 29.6429 104.302 29.9026 105.41 29.9026C106.539 29.9026 107.569 29.6429 108.499 29.1234C109.452 28.5823 110.205 27.8139 110.758 26.8182C111.312 25.8009 111.589 24.6104 111.589 23.2468Z" fill="#E2C8AA"/>
<path d="M117.528 23.2468C117.528 21.4286 117.905 19.8377 118.658 18.474C119.411 17.0887 120.441 16.0173 121.748 15.2597C123.077 14.5022 124.549 14.1234 126.166 14.1234C127.761 14.1234 129.145 14.4589 130.319 15.1299C131.493 15.8009 132.368 16.645 132.944 17.6623V14.4156H136V32.2078H132.944V28.8961C132.346 29.9351 131.449 30.8009 130.253 31.4935C129.079 32.1645 127.706 32.5 126.133 32.5C124.516 32.5 123.054 32.1104 121.748 31.3312C120.441 30.552 119.411 29.4589 118.658 28.052C117.905 26.645 117.528 25.0433 117.528 23.2468ZM132.944 23.2792C132.944 21.9372 132.667 20.7684 132.113 19.7727C131.559 18.7771 130.806 18.0195 129.854 17.5C128.924 16.9589 127.894 16.6883 126.764 16.6883C125.635 16.6883 124.605 16.9481 123.675 17.4675C122.744 17.987 122.002 18.7446 121.449 19.7403C120.895 20.7359 120.618 21.9048 120.618 23.2468C120.618 24.6104 120.895 25.8009 121.449 26.8182C122.002 27.8139 122.744 28.5823 123.675 29.1234C124.605 29.6429 125.635 29.9026 126.764 29.9026C127.894 29.9026 128.924 29.6429 129.854 29.1234C130.806 28.5823 131.559 27.8139 132.113 26.8182C132.667 25.8009 132.944 24.6212 132.944 23.2792Z" fill="#E2C8AA"/>
</svg>
